<svg xmlns="http://www.w3.org/2000/svg" width="24" height="24" viewBox="0 0 24 24">
  <path fill="#333" d="M20.8382812,3 L3.1875,3 C2.2546875,3 1.5,3.7546875 1.5,4.6875 L1.5,19.3570312 C1.5,20.2898437 2.2546875,21.0445312 3.1875,21.0445312 L20.8382813,21.0445312 C21.7710938,21.0445312 22.5257813,20.2898437 22.5257813,19.3570312 L22.5257812,4.6875 C22.5257812,3.75703125 21.76875,3 20.8382812,3 Z M19.0289062,4.6875 L12.7453125,9.93984375 L12.7078125,9.9703125 L12.675,10.0054688 C12.515625,10.1742188 12.3,10.265625 12.0679688,10.2679688 C12.065625,10.2679688 12.065625,10.2679688 12.0632813,10.2679688 C11.8335938,10.2679688 11.6179688,10.1765625 11.4585938,10.0125 L11.4257813,9.9796875 L5.00859375,4.6875 L19.0289062,4.6875 Z M20.8382812,19.3570312 L3.1875,19.3570312 C3.1875,19.3570312 3.1875,19.3570312 3.1875,19.3570312 L3.1875,5.37421875 L10.284375,11.221875 C10.7625,11.6953125 11.390625,11.9554688 12.065625,11.9554688 C12.0703125,11.9554688 12.0726562,11.9554688 12.0773437,11.9554688 C12.7546875,11.953125 13.3875,11.6882813 13.8632812,11.2078125 L20.840625,5.3765625 L20.840625,19.3570312 C20.8382812,19.3570312 20.8382812,19.3570312 20.8382812,19.3570312 Z"/>
</svg>
