<svg xmlns="http://www.w3.org/2000/svg" width="24" height="24" viewBox="0 0 24 24">
  <g fill="none" fill-rule="evenodd">
    <path fill="#333" fill-rule="nonzero" d="M17.9320312,1.5 L6.1875,1.5 C5.2546875,1.5 4.5,2.2546875 4.5,3.1875 L4.5,20.8382813 C4.5,21.7710938 5.2546875,22.5257813 6.1875,22.5257813 L17.9320313,22.5257813 C18.8648437,22.5257813 19.6195313,21.7710938 19.6195313,20.8382813 L19.6195312,3.1875 C19.6195312,2.2546875 18.8625,1.5 17.9320312,1.5 Z M6.1875,3.1875 L17.9320313,3.1875 L17.9320313,15.4476562 L6.1875,15.4476562 L6.1875,3.1875 C6.1875,3.1875 6.1875,3.1875 6.1875,3.1875 Z M17.9320313,20.8382813 L6.1875,20.8382813 C6.1875,20.8382813 6.1875,20.8382813 6.1875,20.8382813 L6.1875,17.1351563 L17.9320313,17.1351563 L17.9320313,20.8382813 C17.9320313,20.8382813 17.9320313,20.8382813 17.9320313,20.8382813 Z"/>
    <path fill="#333" fill-rule="nonzero" d="M12.796875,18 L11.34375,18 C10.8773438,18 10.5,18.3773438 10.5,18.84375 C10.5,19.3101562 10.8773438,19.6875 11.34375,19.6875 L12.796875,19.6875 C13.2632812,19.6875 13.640625,19.3101562 13.640625,18.84375 C13.640625,18.3773438 13.2632812,18 12.796875,18 Z"/>
  </g>
</svg>
